<svg width="50" height="16" viewBox="0 0 50 16" fill="none" xmlns="http://www.w3.org/2000/svg">
<path d="M13.6594 13.6465C12.5782 13.6465 11.6968 13.3149 11.0154 12.6516C10.3385 11.9883 10 11.1047 10 10.0007V9.80991C10 9.06939 10.1431 8.40838 10.4293 7.82686C10.7155 7.24081 11.1199 6.79104 11.6423 6.47757C12.1693 6.15956 12.769 6.00055 13.4414 6.00055C14.4499 6.00055 15.2427 6.31856 15.8197 6.95459C16.4012 7.59062 16.6919 8.49242 16.6919 9.65999V10.4641H11.9967C12.0603 10.9457 12.2511 11.3318 12.5691 11.6226C12.8917 11.9134 13.2983 12.0587 13.7889 12.0587C14.5476 12.0587 15.1405 11.7839 15.5675 11.2342L16.5352 12.3177C16.2399 12.7357 15.8401 13.0628 15.3358 13.299C14.8316 13.5307 14.2728 13.6465 13.6594 13.6465ZM13.4346 7.59517C13.0439 7.59517 12.7258 7.72692 12.4805 7.99041C12.2397 8.25391 12.0853 8.63099 12.0171 9.12164H14.7566V8.9649C14.7475 8.52877 14.6294 8.19258 14.4022 7.95634C14.1751 7.71556 13.8525 7.59517 13.4346 7.59517Z" fill="#0078FF"/>
<path d="M21.9596 7.9836C21.6916 7.94726 21.4554 7.92908 21.2509 7.92908C20.5059 7.92908 20.0175 8.18122 19.7858 8.6855V13.5102H17.8164V6.13684H19.6767L19.7313 7.01593C20.1265 6.33901 20.6739 6.00055 21.3736 6.00055C21.5916 6.00055 21.7961 6.03008 21.9869 6.08914L21.9596 7.9836Z" fill="#0078FF"/>
<path d="M24.9921 13.5102H23.0159V6.13684H24.9921V13.5102ZM22.9001 4.22875C22.9001 3.93345 22.9977 3.6904 23.1931 3.49959C23.393 3.30878 23.6633 3.21337 24.004 3.21337C24.3402 3.21337 24.6082 3.30878 24.8081 3.49959C25.008 3.6904 25.108 3.93345 25.108 4.22875C25.108 4.52859 25.0058 4.77392 24.8013 4.96473C24.6014 5.15554 24.3357 5.25094 24.004 5.25094C23.6724 5.25094 23.4043 5.15554 23.1999 4.96473C23 4.77392 22.9001 4.52859 22.9001 4.22875Z" fill="#0078FF"/>
<path d="M27.0979 13.5102V7.58154H26.0007V6.13684H27.0979V5.79611C27.1069 4.86932 27.3909 4.15606 27.9497 3.65632C28.513 3.15204 29.3058 2.8999 30.328 2.8999C30.9413 2.8999 31.6864 3.03392 32.5632 3.30196L32.277 4.93066C31.8317 4.79891 31.4865 4.71486 31.2411 4.67851C30.9958 4.63763 30.7323 4.61718 30.4506 4.61718C29.5329 4.61718 29.0741 5.02379 29.0741 5.837V6.13684H30.5256V7.58154H29.0741V13.5102H27.0979ZM33.4831 13.5102H31.5069V6.13684H33.4831V13.5102Z" fill="#0078FF"/>
<path d="M38.5055 13.6465C37.4243 13.6465 36.5429 13.3149 35.8614 12.6516C35.1845 11.9883 34.8461 11.1047 34.8461 10.0007V9.80991C34.8461 9.06939 34.9892 8.40838 35.2754 7.82686C35.5616 7.24081 35.9659 6.79104 36.4884 6.47757C37.0154 6.15956 37.6151 6.00055 38.2874 6.00055C39.296 6.00055 40.0888 6.31856 40.6657 6.95459C41.2472 7.59062 41.538 8.49242 41.538 9.65999V10.4641H36.8427C36.9063 10.9457 37.0972 11.3318 37.4152 11.6226C37.7377 11.9134 38.1443 12.0587 38.635 12.0587C39.3937 12.0587 39.9865 11.7839 40.4136 11.2342L41.3813 12.3177C41.086 12.7357 40.6862 13.0628 40.1819 13.299C39.6776 13.5307 39.1188 13.6465 38.5055 13.6465ZM38.2806 7.59517C37.8899 7.59517 37.5719 7.72692 37.3266 7.99041C37.0858 8.25391 36.9313 8.63099 36.8632 9.12164H39.6027V8.9649C39.5936 8.52877 39.4755 8.19258 39.2483 7.95634C39.0211 7.71556 38.6986 7.59517 38.2806 7.59517Z" fill="#0078FF"/>
<path d="M42.3558 9.76903C42.3558 8.61963 42.6124 7.7042 43.1258 7.02274C43.6437 6.34128 44.3502 6.00055 45.2452 6.00055C45.963 6.00055 46.5558 6.26859 47.0238 6.80467V3.04301H49V13.5102H47.2214L47.126 12.7266C46.6353 13.3399 46.0038 13.6465 45.2315 13.6465C44.3638 13.6465 43.6664 13.3058 43.1394 12.6243C42.617 11.9383 42.3558 10.9866 42.3558 9.76903ZM44.3252 9.91213C44.3252 10.6027 44.4456 11.1319 44.6864 11.4999C44.9271 11.8679 45.277 12.0519 45.7358 12.0519C46.3446 12.0519 46.7739 11.7952 47.0238 11.2819V8.37203C46.7784 7.85866 46.3537 7.60198 45.7494 7.60198C44.7999 7.60198 44.3252 8.37203 44.3252 9.91213Z" fill="#0078FF"/>
<path fill-rule="evenodd" clip-rule="evenodd" d="M1 3.76196H3.88919L7.35622 13.6494H4.46703L1 3.76196Z" fill="#2874F0"/>
<path fill-rule="evenodd" clip-rule="evenodd" d="M7.50669 4.86444L4.53125 13.6501H7.35134C7.35134 13.6501 9.20409 8.19243 10.2417 5.27401C10.3317 5.03032 10.4298 4.81111 10.5311 4.6145C10.4929 4.62996 10.4539 4.64436 10.4141 4.6576C9.43812 4.97293 7.97576 4.89877 7.50669 4.86444Z" fill="url(#paint0_linear)"/>
<path fill-rule="evenodd" clip-rule="evenodd" d="M7.70898 4.41197C7.91594 3.22071 8.94498 2.34256 10.154 2.35972C10.6589 2.36689 11.1346 2.3802 11.4189 2.40407C12.2593 2.47465 12.6527 2.69595 12.6527 2.69595C12.6527 2.69595 12.2216 2.94767 11.707 3.27906C11.1924 3.61044 10.8538 4.02527 10.3592 4.21067C9.31877 4.59 7.70898 4.41197 7.70898 4.41197Z" fill="url(#paint1_linear)"/>
<defs>
<linearGradient id="paint0_linear" x1="12.6186" y1="6.43318" x2="6.33588" y2="14.1447" gradientUnits="userSpaceOnUse">
<stop stop-color="#00B0FF"/>
<stop offset="1" stop-color="#2874F0"/>
</linearGradient>
<linearGradient id="paint1_linear" x1="12.6527" y1="2.3501" x2="7.70898" y2="2.3501" gradientUnits="userSpaceOnUse">
<stop stop-color="#FC573F"/>
<stop offset="1" stop-color="#E50113"/>
</linearGradient>
</defs>
</svg>
